# xmcd
#
# Track frame offsets: 
#        150
#        14030
#        27598
#        42033
#        55675
#        62438
#        68443
#        74025
#        77855
#        81073
#        85360
#        91593
#        111090
#        125885
#        137460
#        151143
#        160995
#        175233
#        185145
#        195595
#
# Disc length: 2765 seconds
#
# Revision: 0
# Processed by: cddbd v1.5.2PL0 Copyright (c) Steve Scherf et al.
# Submitted via: ExactAudioCopy v0.99pb3
#
DISCID=0c0acb14
DTITLE=Leadbelly - Borrow Love And Go
DYEAR=2006
DGENRE=Blues
TTITLE0=The Bourgeois Blues
TTITLE1=Look, Looky Yonder/Black Betty
TTITLE2=Poor Howard/Green Corn
TTITLE3=The Gallis Pole
TTITLE4=Noted Rider
TTITLE5=Big Fat Woman
TTITLE6=Borrow Love And Go
TTITLE7=Bring Me Li'l Water Silvy
TTITLE8=Julie Ann Johnson
TTITLE9=Line 'Em
TTITLE10=Whoa Back Buck
TTITLE11=John Hardy
TTITLE12=In New Orleans
TTITLE13=Goodnight Irene
TTITLE14=Where Did You Sleep Last Night
TTITLE15=How Long
TTITLE16=Yellow Gal
TTITLE17=On A Monday
TTITLE18=Blue Tail Fly
TTITLE19=The Boll Weevil Song
EXTD=
EXTT0=
EXTT1=
EXTT2=
EXTT3=
EXTT4=
EXTT5=
EXTT6=
EXTT7=
EXTT8=
EXTT9=
EXTT10=
EXTT11=
EXTT12=
EXTT13=
EXTT14=
EXTT15=
EXTT16=
EXTT17=
EXTT18=
EXTT19=
PLAYORDER=
